<mxfile host="app.diagrams.net" modified="2022-08-26T11:17:02.319Z" agent="5.0 (X11; Linux x86_64) AppleWebKit/537.36 (KHTML, like Gecko) Chrome/103.0.0.0 Safari/537.36" etag="DDDC1H8bJNEiNbjmmz-h" version="20.2.3" type="github">
  <diagram id="Nrs26FxgVpMpn7SGn782" name="Page-1">
    <mxGraphModel dx="980" dy="496" grid="1" gridSize="10" guides="1" tooltips="1" connect="1" arrows="1" fold="1" page="1" pageScale="1" pageWidth="850" pageHeight="1100" math="0" shadow="0">
      <root>
        <mxCell id="0" />
        <mxCell id="1" parent="0" />
        <mxCell id="on3yeQ4lWGmDJ_swYvKo-15" value="Initialize model" style="rounded=1;whiteSpace=wrap;html=1;fillColor=#dae8fc;strokeColor=#6c8ebf;" vertex="1" parent="1">
          <mxGeometry x="360" y="320" width="120" height="60" as="geometry" />
        </mxCell>
        <mxCell id="on3yeQ4lWGmDJ_swYvKo-16" value="" style="edgeStyle=orthogonalEdgeStyle;rounded=0;orthogonalLoop=1;jettySize=auto;html=1;" edge="1" parent="1" source="on3yeQ4lWGmDJ_swYvKo-17" target="on3yeQ4lWGmDJ_swYvKo-15">
          <mxGeometry relative="1" as="geometry" />
        </mxCell>
        <mxCell id="on3yeQ4lWGmDJ_swYvKo-17" value="General-domain data" style="rounded=0;whiteSpace=wrap;html=1;fillColor=#d5e8d4;strokeColor=#82b366;" vertex="1" parent="1">
          <mxGeometry x="360" y="400" width="120" height="40" as="geometry" />
        </mxCell>
        <mxCell id="on3yeQ4lWGmDJ_swYvKo-20" value="" style="edgeStyle=orthogonalEdgeStyle;rounded=0;orthogonalLoop=1;jettySize=auto;html=1;" edge="1" parent="1" target="on3yeQ4lWGmDJ_swYvKo-23">
          <mxGeometry relative="1" as="geometry">
            <mxPoint x="480" y="350" as="sourcePoint" />
          </mxGeometry>
        </mxCell>
        <mxCell id="on3yeQ4lWGmDJ_swYvKo-22" value="" style="edgeStyle=orthogonalEdgeStyle;rounded=0;orthogonalLoop=1;jettySize=auto;html=1;" edge="1" parent="1" source="on3yeQ4lWGmDJ_swYvKo-23" target="on3yeQ4lWGmDJ_swYvKo-26">
          <mxGeometry relative="1" as="geometry" />
        </mxCell>
        <mxCell id="on3yeQ4lWGmDJ_swYvKo-23" value="Baseline Model" style="whiteSpace=wrap;html=1;fillColor=#dae8fc;strokeColor=#6c8ebf;rounded=1;" vertex="1" parent="1">
          <mxGeometry x="520" y="320" width="120" height="60" as="geometry" />
        </mxCell>
        <mxCell id="on3yeQ4lWGmDJ_swYvKo-24" value="" style="edgeStyle=orthogonalEdgeStyle;rounded=0;orthogonalLoop=1;jettySize=auto;html=1;" edge="1" parent="1" source="on3yeQ4lWGmDJ_swYvKo-25">
          <mxGeometry relative="1" as="geometry">
            <mxPoint x="580" y="380" as="targetPoint" />
          </mxGeometry>
        </mxCell>
        <mxCell id="on3yeQ4lWGmDJ_swYvKo-25" value="Test Data" style="rounded=0;whiteSpace=wrap;html=1;fillColor=#e1d5e7;strokeColor=#9673a6;" vertex="1" parent="1">
          <mxGeometry x="520" y="400" width="120" height="40" as="geometry" />
        </mxCell>
        <mxCell id="on3yeQ4lWGmDJ_swYvKo-26" value="Output" style="ellipse;whiteSpace=wrap;html=1;fillColor=#f8cecc;strokeColor=#b85450;rounded=1;" vertex="1" parent="1">
          <mxGeometry x="520" y="240" width="120" height="60" as="geometry" />
        </mxCell>
      </root>
    </mxGraphModel>
  </diagram>
</mxfile>
